<?xml version="1.0" encoding="utf-8"?>
<!-- Generator: Adobe Illustrator 21.0.2, SVG Export Plug-In . SVG Version: 6.00 Build 0)  -->
<svg version="1.1" id="Layer_1" xmlns="http://www.w3.org/2000/svg" xmlns:xlink="http://www.w3.org/1999/xlink" x="0px" y="0px"
	 width="59.2px" height="54.2px" viewBox="0 0 59.2 54.2" style="enable-background:new 0 0 59.2 54.2;" xml:space="preserve">
<g>
	<g>
		<g>
			<path d="M45.4,41.3c-0.2-0.2-0.4-0.4-0.7-0.5c-0.3-0.2-0.6-0.3-0.9-0.5c-0.1,0-0.2-0.1-0.2-0.1c-0.2-0.1-0.3-0.1-0.4-0.2
				c-0.2-0.1-0.4-0.2-0.5-0.3l0,0c-0.1-0.1-0.2-0.2-0.3-0.3s-0.1-0.2-0.1-0.4c0-0.1,0-0.2,0.1-0.4c0.1-0.1,0.2-0.2,0.3-0.3
				c0,0,0,0,0.1,0c0.1-0.1,0.2-0.1,0.4-0.1s0.3-0.1,0.5-0.1c0,0,0,0,0.1,0c0.2,0,0.3,0,0.5,0s0.4,0.1,0.5,0.1c0.2,0,0.3,0.1,0.5,0.2
				c0.2,0.1,0.5-0.1,0.5-0.3v-0.7c0-0.3-0.2-0.5-0.5-0.6c-0.1,0-0.3-0.1-0.5-0.1c-0.3-0.1-0.7-0.1-1.1-0.1V36h-1.1v0.6
				c-0.1,0-0.3,0-0.4,0.1c-0.4,0.1-0.8,0.2-1.1,0.5c-0.3,0.2-0.5,0.5-0.7,0.8s-0.3,0.7-0.3,1.1c0,0.6,0.2,1,0.5,1.4s0.8,0.7,1.5,1
				c0.2,0.1,0.3,0.1,0.5,0.2c0.1,0,0.2,0.1,0.2,0.1c0.2,0.1,0.4,0.2,0.6,0.3c0,0,0.1,0,0.1,0.1c0.1,0.1,0.2,0.2,0.3,0.3
				s0.1,0.3,0.1,0.4c0,0.1,0,0.2-0.1,0.3s-0.1,0.2-0.3,0.3h-0.1c-0.1,0.1-0.2,0.1-0.4,0.1s-0.3,0.1-0.5,0.1h-0.1
				c-0.4,0-0.8-0.1-1.2-0.2c-0.2-0.1-0.4-0.2-0.6-0.3c-0.2-0.1-0.5,0-0.5,0.3v0.8c0,0.3,0.2,0.5,0.4,0.6s0.4,0.1,0.7,0.2
				c0.4,0.1,0.9,0.1,1.3,0.1v0.6h0.9v-0.6c0.1,0,0.3,0,0.4-0.1c0.4-0.1,0.8-0.2,1.1-0.4s0.5-0.5,0.7-0.8s0.3-0.7,0.3-1.2
				c0-0.3-0.1-0.6-0.2-0.9C45.7,41.7,45.5,41.5,45.4,41.3z"/>
			<path d="M58.7,51.6c-1-1.1-1.9-2-2.8-3l0,0c0-0.5,0-0.9,0-1.4c0-0.2,0-0.4,0-0.5v-3.3c0-2.9,0-6,0-8.9c0-1.6-1.1-2.7-2.7-2.7
				c-6.4,0-13.1,0-20.5,0c-0.2,0-0.4,0-0.6,0c-1.3,0.3-2.1,1.3-2.1,2.7c0,2.4,0,4.8,0,7.2c0,1.9,0,3.9,0,5.8c0,0.2,0,0.3,0,0.5
				c0,0.3,0,0.6,0,0.7c-0.1,0.2-0.3,0.4-0.5,0.6c-0.1,0.1-0.2,0.2-0.3,0.4c-0.6,0.6-1.1,1.3-1.7,1.9l-0.3,0.3
				c-0.4,0.4-0.5,0.9-0.3,1.4s0.6,0.8,1.2,0.9c0.1,0,0.2,0,0.2,0h0.1h0.1c4,0,8,0,12.1,0h5.3c3.9,0,7.9,0,11.8,0
				c0.3,0,1.1,0,1.4-0.8C59.4,52.4,58.9,51.8,58.7,51.6z M32.7,34.3C32.8,34.3,32.8,34.3,32.7,34.3c6.9,0,13.6,0,20.4,0h0.1v0.1
				c0,3.5,0,7,0,10.5v2.8H32.7C32.7,43.2,32.7,38.8,32.7,34.3C32.7,34.3,32.7,34.3,32.7,34.3z M46.5,51.4c-0.1-0.4-0.2-0.7-0.3-1
				c-2.1,0-4.1,0-6.1,0c-0.1,0.4-0.2,0.7-0.3,1c-3.2,0-6.4,0-9.6,0c0.1-0.1,0.1-0.2,0.2-0.3c0.5-0.6,1.1-1.2,1.6-1.8
				c0.1-0.1,0.3-0.2,0.4-0.2c7.2,0,14.3,0,21.5,0c0.2,0,0.4,0.1,0.5,0.2c0.6,0.6,1.2,1.3,1.9,2C52.8,51.4,49.7,51.4,46.5,51.4z"/>
		</g>
		<g>
			<path d="M18.5,9.6c-0.2-0.2-0.4-0.4-0.7-0.5c-0.3-0.2-0.6-0.3-0.9-0.5c-0.1,0-0.2-0.1-0.2-0.1c-0.2-0.1-0.3-0.1-0.4-0.2
				c-0.2-0.1-0.4-0.2-0.5-0.3l0,0c-0.1-0.1-0.2-0.2-0.3-0.3c-0.1-0.1-0.1-0.2-0.1-0.4c0-0.1,0-0.2,0.1-0.4c0.1-0.1,0.2-0.2,0.3-0.3
				c0,0,0,0,0.1,0c0.1-0.1,0.2-0.1,0.4-0.1c0.2,0,0.3-0.1,0.5-0.1c0,0,0,0,0.1,0c0.2,0,0.3,0,0.5,0s0.4,0.1,0.5,0.1
				c0.2,0,0.3,0.1,0.5,0.2c0.2,0.1,0.5-0.1,0.5-0.3V5.7c0-0.3-0.2-0.5-0.5-0.6c-0.1,0-0.3-0.1-0.5-0.1c-0.5,0-0.9,0-1.3,0V4.4h-0.9
				V5c-0.1,0-0.3,0-0.4,0.1c-0.4,0.1-0.8,0.2-1.1,0.5c-0.3,0.2-0.5,0.5-0.7,0.8s-0.3,0.7-0.3,1.1c0,0.6,0.2,1,0.5,1.4
				c0.3,0.4,0.8,0.7,1.5,1c0.2,0.1,0.3,0.1,0.5,0.2c0.1,0,0.2,0.1,0.2,0.1c0.2,0.1,0.4,0.2,0.6,0.3c0,0,0.1,0,0.1,0.1
				c0.1,0.1,0.2,0.2,0.3,0.3C17,11,17,11.2,17,11.3s0,0.2-0.1,0.3c-0.1,0.1-0.1,0.2-0.3,0.3h-0.1C16.4,12,16.3,12,16.1,12
				c-0.2,0-0.3,0.1-0.5,0.1h-0.1c-0.4,0-0.8-0.1-1.2-0.2c-0.2-0.1-0.4-0.2-0.6-0.3c-0.2-0.1-0.5,0-0.5,0.3v0.8
				c0,0.3,0.2,0.5,0.4,0.6c0.2,0.1,0.4,0.1,0.7,0.2c0.4,0.1,0.9,0.1,1.3,0.1v0.6h1v-0.6c0.1,0,0.3,0,0.4-0.1
				c0.4-0.1,0.8-0.2,1.1-0.4c0.3-0.2,0.5-0.5,0.7-0.8s0.3-0.7,0.3-1.2c0-0.3-0.1-0.6-0.2-0.9C18.8,10.1,18.6,9.8,18.5,9.6z"/>
			<path d="M31.8,20c-1-1.1-1.9-2-2.8-3l0,0c0-0.5,0-0.9,0-1.4c0-0.2,0-0.4,0-0.5v-3.3c0-2.9,0-6,0-8.9c0-1.6-1.1-2.7-2.7-2.7
				C19.9,0,13.2,0,5.9,0C5.7,0,5.5,0,5.3,0C4,0.3,3.2,1.4,3.2,2.8c0,2.4,0,4.8,0,7.2c0,1.9,0,3.9,0,5.8c0,0.2,0,0.3,0,0.5
				c0,0.3,0,0.6,0,0.7c-0.1,0.2-0.3,0.4-0.5,0.6c-0.1,0.1-0.2,0.2-0.3,0.4c-0.6,0.6-1.1,1.3-1.7,1.9l-0.3,0.3
				c-0.4,0.4-0.5,0.9-0.3,1.4s0.6,0.8,1.2,0.9c0.1,0,0.2,0,0.2,0h0.1h0.1c4,0,8,0,12.1,0h5.3c3.9,0,7.9,0,11.8,0
				c0.3,0,1.1,0,1.4-0.8C32.5,20.8,32,20.2,31.8,20z M5.8,2.6C5.9,2.6,5.9,2.6,5.8,2.6c6.9,0,13.6,0,20.4,0h0.1v0.1
				c0,3.5,0,7,0,10.5V16H5.8C5.8,11.5,5.8,7.1,5.8,2.6C5.8,2.7,5.8,2.7,5.8,2.6z M19.6,19.8c-0.1-0.4-0.2-0.7-0.3-1
				c-2.1,0-4.1,0-6.1,0c-0.1,0.4-0.2,0.7-0.3,1c-3.2,0-6.4,0-9.6,0c0.1-0.1,0.1-0.2,0.2-0.3c0.5-0.6,1.1-1.2,1.6-1.8
				c0.1-0.1,0.3-0.2,0.4-0.2c7.2,0,14.3,0,21.5,0c0.2,0,0.4,0.1,0.5,0.2c0.6,0.6,1.2,1.3,1.9,2C25.9,19.8,22.8,19.8,19.6,19.8z"/>
		</g>
	</g>
	<g>
		<path d="M19,27c-0.2,0.1-0.4,0.2-0.5,0.3v0.1c0.9,1.6,1.7,3.3,2.9,4.7c1.4,1.7,3,3.2,5.1,4.1c0,0,0.1,0,0.1,0.1
			c-0.2,0.1-0.3,0.1-0.5,0.1c-2.7,0.6-5.3,0.3-7.5-1.4c-1.1-0.8-1.9-1.9-2.5-3c-0.4-0.7-0.8-1.5-1.3-2.2c-0.1-0.1-0.1-0.2-0.2-0.3
			c-0.2,0.1-0.4,0.2-0.6,0.3c0.1-1.9,0.2-3.7,0.3-5.6C15.8,25.2,17.4,26.1,19,27z"/>
		<path d="M42.1,26.8c0.2-0.1,0.4-0.2,0.5-0.3v-0.1c-1-1.6-1.9-3.2-3.1-4.6c-1.5-1.7-3.2-3-5.3-3.9c0,0-0.1,0-0.1-0.1
			c0.2-0.1,0.3-0.1,0.5-0.2c2.7-0.7,5.2-0.5,7.6,1.1c1.1,0.8,2,1.8,2.7,2.9c0.5,0.7,0.9,1.5,1.4,2.2c0.1,0.1,0.1,0.2,0.2,0.3
			c0.2-0.1,0.3-0.2,0.6-0.4c0,1.9,0,3.8,0,5.6C45.3,28.5,43.7,27.7,42.1,26.8z"/>
	</g>
</g>
</svg>
