<?xml version="1.0" encoding="utf-8"?>
<!-- Generator: Adobe Illustrator 21.0.2, SVG Export Plug-In . SVG Version: 6.00 Build 0)  -->
<svg version="1.1" id="Layer_1" xmlns="http://www.w3.org/2000/svg" xmlns:xlink="http://www.w3.org/1999/xlink" x="0px" y="0px"
	 width="100px" height="98.2px" viewBox="0 0 100 98.2" style="enable-background:new 0 0 100 98.2;" xml:space="preserve">
<title>Artboard 19</title>
<path d="M25.7,60c0.2,2.6-0.1,5.3-0.8,7.8c-0.7,2.5,0.7,5.1,3.1,5.8c1.1,0.3,2.4,0.2,3.5-0.3C36.1,71,42.3,66.9,46,60.7h3
	c16.3,0,29.5-13.2,29.5-29.5S65.3,1.7,49,1.7l0,0H31.9C15.6,1.7,2.4,14.9,2.4,31.2C2.4,45.1,12.1,57.1,25.7,60z M31.9,6.8h17.2
	c13.5,0,24.5,11,24.5,24.5s-11,24.5-24.5,24.5l0,0h-4.5c-0.9,0-1.8,0.5-2.2,1.3c-2.9,5.5-8.2,9.2-12.5,11.5c0.9-3.6,1.1-7.3,0.5-11
	c-0.2-1.1-1-1.9-2.1-2.1C15,53.1,6,40.5,8.2,27.2C10.2,15.6,20.1,7,31.9,6.8z M97.6,66.6c0,10.2-7.1,19.1-17,21.5
	c-0.1,1.7,0.1,3.3,0.6,4.9c0.6,2.2-0.6,4.4-2.7,5.1c-1,0.3-2.1,0.2-3-0.3c-3.4-1.7-7.8-4.6-10.7-9.1h-1.8c-8.8,0-16.8-5.2-20.3-13.3
	c-0.6-1.3,0-2.7,1.3-3.3c1.3-0.6,2.7,0,3.3,1.3c2.7,6.3,8.9,10.3,15.7,10.3h3.3c0.9,0,1.8,0.5,2.2,1.3c1.8,3.1,4.4,5.6,7.5,7.3
	c-0.4-2.2-0.4-4.5-0.1-6.8c0.2-1.1,1-1.9,2.1-2.1c9.4-1.4,15.8-10.1,14.5-19.4c-0.9-6.1-5-11.2-10.7-13.5c-1.2-0.7-1.6-2.2-0.9-3.4
	c0.6-0.9,1.6-1.4,2.7-1.1C92,49.3,97.6,57.5,97.6,66.6z M27.7,30.1c0.7-1.2,2.2-1.6,3.4-0.9c2.2,1.3,4.1,2.9,5.7,4.8
	c3.6-4.6,7.9-8.7,12.8-12c1.1-0.8,2.7-0.5,3.5,0.6s0.5,2.7-0.6,3.5c-5.3,3.7-9.9,8.3-13.6,13.6c-0.5,0.7-1.2,1.1-2,1.1h-0.1
	c-0.9,0-1.6-0.5-2.1-1.3c-1.4-2.5-3.5-4.6-6-6C27.5,32.8,27,31.3,27.7,30.1z"/>
</svg>
