<?xml version="1.0" encoding="utf-8"?>
<!-- Generator: Adobe Illustrator 21.0.2, SVG Export Plug-In . SVG Version: 6.00 Build 0)  -->
<svg version="1.1" id="Layer_1" xmlns="http://www.w3.org/2000/svg" xmlns:xlink="http://www.w3.org/1999/xlink" x="0px" y="0px"
	 width="61.7px" height="55.4px" viewBox="0 0 61.7 55.4" style="enable-background:new 0 0 61.7 55.4;" xml:space="preserve">
<g>
	<g>
		<path d="M34.1,15.9c0.7,0.5,1.4,0.8,2.1,1.1c0.6,0.3,1.2,0.5,1.6,0.8c0.7,0.4,0.7,1.1,0.7,1.6c-0.1,0.6-0.5,1.1-1.1,1.3
			c-0.3,0.1-0.6,0.2-1,0.2c-0.3,0-0.6,0-1-0.1c-0.6-0.1-1.1-0.3-1.6-0.6l-0.1-0.1l-0.2,0.4c-0.1,0.3-0.3,0.7-0.4,1
			c0,0.1,0,0.3,0.1,0.3s0.2,0.1,0.2,0.1c0.3,0.1,0.6,0.3,0.9,0.4c0.3,0.1,0.7,0.1,1,0.2c0.1,0,0.2,0,0.4,0.1v1.3h1.5v-1.4h0.2
			c0.7-0.2,1.3-0.4,1.7-0.8c0.8-0.6,1.3-1.6,1.3-2.6s-0.4-1.9-1.1-2.5c-0.7-0.6-1.6-1-2.2-1.2c-0.6-0.3-1.2-0.5-1.7-0.9
			c-0.6-0.5-0.9-1.2-0.8-1.9c0.1-0.7,0.5-1.2,1.2-1.5c0.3-0.1,0.7-0.2,1.1-0.2c0.9,0,1.8,0.2,2.8,0.7l0.4,0.2l0.2-0.5
			c0.1-0.3,0.2-0.6,0.3-0.8c0.1-0.2,0-0.3-0.2-0.4c-0.5-0.3-1.1-0.5-1.7-0.6c-0.3-0.1-0.6-0.1-0.9-0.1c-0.1,0-0.2,0-0.3,0V8h-1.6
			v1.5c-0.1,0-0.2,0.1-0.3,0.1c-0.3,0.1-0.5,0.1-0.7,0.2c-1.3,0.6-2.1,1.5-2.3,2.8C32.4,13.9,32.9,15,34.1,15.9z"/>
		<path d="M25.4,27c3,3,7,4.7,11.3,4.7c8.7,0,15.8-7.1,15.9-15.8c0-4.2-1.6-8.2-4.6-11.2S41,0,36.8,0h-0.1C28,0,20.9,7.1,20.9,15.8
			C20.8,20,22.4,24,25.4,27z M36.6,2.5L36.6,2.5c3.6,0,7,1.4,9.5,4S50,12.4,50,16c0,7.3-6.1,13.3-13.4,13.3c-3.6,0-6.9-1.4-9.4-4
			c-2.5-2.5-3.9-5.9-3.9-9.5C23.3,8.5,29.3,2.5,36.6,2.5z"/>
		<path d="M36.8,25.4h-0.1c-0.7,0-1.2,0.5-1.3,1.1c0,0.3,0.1,0.7,0.3,0.9c0.2,0.3,0.5,0.4,0.9,0.4c0.7,0.1,1.3-0.4,1.4-1.1
			c0-0.3-0.1-0.7-0.3-0.9S37.1,25.4,36.8,25.4z"/>
		<path d="M30.4,25.9c0.4,0,0.7-0.2,0.9-0.4c0.5-0.5,0.4-1.3-0.1-1.8c-0.2-0.2-0.5-0.3-0.8-0.3c-0.4,0-0.7,0.2-0.9,0.4
			c-0.5,0.5-0.4,1.3,0.1,1.8C29.8,25.7,30.1,25.9,30.4,25.9z"/>
		<path d="M26.6,18c-0.1,0-0.2,0-0.3,0c-0.7,0.2-1.1,0.8-1,1.5c0.1,0.6,0.6,1,1.2,1c0.1,0,0.2,0,0.3,0c0.3-0.1,0.6-0.3,0.8-0.6
			s0.2-0.6,0.2-1C27.7,18.4,27.1,18,26.6,18z"/>
		<path d="M26.1,13.8c0.2,0.1,0.3,0.1,0.5,0.1c0.5,0,1-0.3,1.2-0.8c0.1-0.3,0.1-0.7,0-1s-0.4-0.6-0.7-0.7c-0.2-0.1-0.3-0.1-0.5-0.1
			c-0.5,0-1,0.3-1.2,0.8c-0.1,0.3-0.1,0.7,0,1S25.8,13.6,26.1,13.8z"/>
		<path d="M30.5,8.6c0.2,0,0.4-0.1,0.6-0.2c0.3-0.2,0.5-0.4,0.6-0.8s0-0.7-0.1-1C31.4,6.2,31,6,30.5,6c-0.2,0-0.4,0.1-0.6,0.2
			c-0.3,0.2-0.5,0.4-0.6,0.8s0,0.7,0.1,1C29.7,8.3,30.1,8.6,30.5,8.6z"/>
		<path d="M36.7,6.6c0.7,0.1,1.3-0.4,1.4-1.1c0-0.3-0.1-0.7-0.3-0.9c-0.2-0.2-0.5-0.4-0.8-0.5h-0.1c-0.6,0-1.2,0.5-1.3,1.1
			C35.5,5.9,36,6.5,36.7,6.6z"/>
		<path d="M43.1,8.8c0.4,0,0.7-0.2,0.9-0.4c0.5-0.5,0.4-1.3-0.1-1.8c-0.2-0.2-0.5-0.3-0.8-0.3c-0.4,0-0.7,0.2-0.9,0.4
			s-0.3,0.6-0.3,0.9s0.2,0.6,0.4,0.9C42.5,8.6,42.8,8.8,43.1,8.8z"/>
		<path d="M47.1,14.1c0.7-0.1,1.1-0.8,1-1.5c-0.1-0.6-0.6-1-1.2-1c-0.1,0-0.2,0-0.3,0c-0.7,0.1-1.1,0.8-1,1.5
			C45.8,13.8,46.5,14.3,47.1,14.1z"/>
		<path d="M46.2,20.7c0.2,0.1,0.3,0.1,0.5,0.1c0.5,0,0.9-0.3,1.1-0.7c0.1-0.3,0.2-0.7,0-1c-0.1-0.3-0.4-0.6-0.7-0.7
			c-0.2-0.1-0.3-0.1-0.5-0.1c-0.5,0-0.9,0.3-1.1,0.7C45.3,19.6,45.6,20.4,46.2,20.7z"/>
		<path d="M42.7,26c0.2,0,0.4-0.1,0.6-0.2c0.3-0.2,0.5-0.4,0.6-0.8c0.1-0.3,0.1-0.7-0.1-1c-0.2-0.4-0.6-0.6-1.1-0.6
			c-0.2,0-0.4,0.1-0.6,0.2c-0.3,0.2-0.5,0.4-0.6,0.8c-0.1,0.3-0.1,0.7,0.1,1C41.8,25.8,42.3,26,42.7,26z"/>
	</g>
	<path d="M61.6,40.3c-0.2-0.6-0.7-1.1-1.4-1.4c-0.4-0.2-0.9-0.3-1.4-0.4c-0.4-0.5-1.1-0.7-1.3-0.8c-0.9-0.3-1.8-0.4-2.7-0.4
		c-0.4-0.5-1.1-1.1-2.3-1.1c-0.2,0-0.4,0-0.6,0c-0.3,0-0.5,0.1-0.8,0.2c-0.3,0.1-0.7,0.2-1.2,0.3c-0.3,0.1-0.6,0.3-0.8,0.6
		c-0.2,0.3-0.2,0.7-0.1,1c0.2,0.5,0.7,0.9,1.3,0.9c0.1,0,0.3,0,0.4-0.1c0.4-0.1,0.7-0.2,1.1-0.3c0.2,0,0.3-0.1,0.5-0.1
		c0.3,0,0.4,0,0.5,0c0.1,0.2,0.2,0.5,0.5,0.7s0.6,0.3,1,0.3c0.2,0,0.3,0,0.5,0c0.7,0,1.4,0.1,1.9,0.3v0.4c0.1,0.2,0.4,0.5,0.8,0.7
		c-5,1.7-8.5,3.9-8.9,4.2c-4.3,2.9-13,6-13.3,6.2c-3.8,1.4-6.6,1.7-9.7,1.1c-2.4-0.5-4.6-1.5-6.7-2.6c-1.1-0.6-2.3-1.1-3.5-1.6
		c-0.5-0.2-5.5-2.1-5.5-2.1c-0.5-0.2-1.1,0.2-1.1,0.8l0.1,1.8l0.2,0.8c-0.3,0-0.6,0-0.9,0.1c-0.1-0.2-0.3-0.4-0.4-0.6
		c-1.7-2.7-3.1-5.5-4-8.5c-0.3-0.9-0.5-1.7-0.7-2.6c-0.1-0.4-0.2-0.8-0.3-1.3s-0.2-1.1-0.3-1.6c1.8-0.1,3.6-0.3,5.4-0.4L8,36.1
		l0.1,1.3l2.6-0.2c0.9-0.1,2.4-0.3,3.3-0.5c1.3-0.2,2.7-0.1,4.3,0.3c1,0.3,1.9,0.6,3,1c0.7,0.3,1.4,0.5,2.1,0.7
		c0.8,0.3,1.7,0.6,2.5,0.8H26c2.2,0.8,4.5,1.6,7,1.9c0.5,0.1,1,0.1,1.4,0.1c0.9,0.1,1.8,0.1,2.7,0c1-0.1,2-0.2,3-0.3
		c1-0.1,1.9-0.3,3-0.4c0.2,0,0.3,0,0.5,0c0.9-0.1,1.8,0,2.5,0.1c0.1,0,0.1,0.1,0.1,0.1c0,0.1,0,0.3,0,0.3c-0.3,0.4-1,0.6-1.7,0.7
		h-0.1c-0.2,0.1-0.4,0.1-0.6,0.2c-2.4,0.8-5,1.2-8.5,1.5c-1.1,0.1-2.1,0.1-3,0.1c-0.2,0-0.5,0-0.7,0c-0.3,0-0.7-0.1-1,0
		c-0.3,0-0.7,0.2-0.9,0.5s-0.3,0.6-0.3,0.9c0,0.7,0.6,1.2,1.3,1.2h0.1c0.2,0,0.4,0,0.6,0s0.5,0,0.7,0c1,0,2,0,3.4-0.1
		c3.7-0.3,6.5-0.8,9.1-1.6c0.2-0.1,0.4-0.1,0.6-0.2c1.1-0.3,2.4-0.6,3.2-1.8c0.5-0.8,0.7-1.8,0.3-2.7c-0.3-0.9-1-1.5-1.9-1.7
		c-1-0.3-2.2-0.3-3.3-0.2c-0.2,0-0.5,0-0.6,0.1c-1,0.1-2,0.2-3,0.4h-0.1c-0.9,0.1-1.9,0.2-2.8,0.3c-0.7,0.1-1.5,0.1-2.2,0
		c-0.4,0-0.8-0.1-1.2-0.1c-2.2-0.3-4.3-1-6.5-1.8H27c-0.8-0.3-1.7-0.6-2.6-0.9c-0.6-0.2-1.3-0.4-1.9-0.7l0,0c-1-0.4-2.1-0.7-3.2-1
		c-2.5-0.7-5-0.6-7,0.1c-0.5,0-0.9,0.1-1.4,0.1c0-0.3,0-0.7-0.1-1c-0.1-1-0.6-1.5-1.7-1.4c-2.8,0.2-5.6,0.4-8.4,0.6
		c-0.2,0-0.4,0.1-0.7,0.1c0.2,1.5,0.4,2.9,0.7,4.4c0.2,0.9,0.4,1.9,0.6,2.8c1.1,4.1,3,8,5.4,11.6c0.1,0.1,0.1,0.2,0.2,0.3
		c0.1,0.2,0.5,0.4,0.7,0.4c0.9,0,1.9-0.1,2.8-0.2c0.8-0.1,1.4-0.8,1.4-1.6l0,0c0-0.3,0-0.6,0-0.8c2.2,0.5,4.1,1.4,6,2.5
		c1.9,1.1,4,2,6.1,2.5c0.5,0.1,1,0.2,1.5,0.3c1.1,0.2,2.2,0.3,3.3,0.3c2.4,0,5-0.5,7.8-1.5c0.1,0,9.2-3.3,13.9-6.5
		c0,0,4.4-2.8,10.2-4.5c0.5-0.2,0.8-0.5,1-0.8C61.7,41.6,61.8,40.9,61.6,40.3z"/>
</g>
</svg>
