<?xml version="1.0" encoding="utf-8"?>
<!-- Generator: Adobe Illustrator 21.0.2, SVG Export Plug-In . SVG Version: 6.00 Build 0)  -->
<svg version="1.1" id="Layer_1" xmlns="http://www.w3.org/2000/svg" xmlns:xlink="http://www.w3.org/1999/xlink" x="0px" y="0px"
	 width="92.8px" height="84px" viewBox="0 0 92.8 84" style="enable-background:new 0 0 92.8 84;" xml:space="preserve">
<path d="M62.5,32.9c0,2.3-1.9,4.2-4.2,4.2s-4.2-1.9-4.2-4.2s1.9-4.2,4.2-4.2S62.5,30.6,62.5,32.9 M70.8,26.7v16.6
	c0,1.7-1.1,4.4-2.3,5.6L43.1,74.3c-0.8,0.8-2.1,0.8-3,0L16.9,51.1c-0.8-0.8-0.8-2.2,0-3l25.4-25.4c1.2-1.2,3.9-2.3,5.6-2.3h16.6
	c1,0,1.9,0.2,2.7,0.6l-4.7,4.7c-1.2-0.7-2.7-1.2-4.2-1.2c-4.6,0-8.3,3.7-8.3,8.3s3.7,8.3,8.3,8.3s8.3-3.7,8.3-8.3
	c0-1.5-0.4-3-1.2-4.2l4.7-4.7C70.6,24.8,70.8,25.7,70.8,26.7 M82.7,8.5c-0.8-0.8-2.1-0.8-2.9,0L70.3,18c-1.7-1.1-3.6-1.7-5.8-1.7
	H47.9c-2.9,0-6.6,1.5-8.6,3.5L14,45.2c-2.4,2.4-2.4,6.4,0,8.8l23.3,23.3c2.4,2.4,6.4,2.5,8.8,0l25.4-25.4c2-2,3.6-5.7,3.6-8.6V26.7
	c0-2.1-0.6-4.1-1.7-5.8l9.5-9.5C83.6,10.7,83.6,9.3,82.7,8.5"/>
</svg>
