<svg xmlns="http://www.w3.org/2000/svg" xmlns:xlink="http://www.w3.org/1999/xlink" viewBox="0 0 174 39">
  <defs>
    <linearGradient id="a" x1="1.299" y1="24.394" x2="42.396" y2="10.898" gradientUnits="userSpaceOnUse">
      <stop offset="0" stop-color="#f19740"/>
      <stop offset="1" stop-color="#fbcc75"/>
    </linearGradient>
  </defs>
  <title>Unilot_logo_new_black</title>
  <path d="M6.616,32.694A13.237,13.237,0,0,1,2.649,23.1V6.264H9.964l.024,14.379c-.141,5.586,2.562,8.774,8.5,8.752a16.817,16.817,0,0,0,4.345-.68l-.026,6.546c-1.127.281-2.207.677-3.279.829a25.642,25.642,0,0,1-3.605.259A11.973,11.973,0,0,1,6.615,32.7Zm6.013-12.739c0-2.574-.008-5.4-.014-9.6L12.6,3.616H0V23.171c.186,4.793,1.729,8.809,4.527,11.6,2.68,2.673,6.5,4.212,11.351,4.225a27.851,27.851,0,0,0,4.192-.31,48.947,48.947,0,0,0,4.943-.9l.429-.117V28.13a44.011,44.011,0,0,0,4.5-2.05,25.485,25.485,0,0,0,5.234-3.1l.214-.173c0-6.55,0-12.639,0-19.189H20.848V13.909H22.8V26a16.207,16.207,0,0,1-4.082.74c-2.639.068-4.612-.9-5.557-3.428a9.144,9.144,0,0,1-.539-3.347v-.014Zm12.849-8.562H23.523V6.254l9.207,0c0,6.117.011,8.793.011,14.907a34.715,34.715,0,0,1-7.3,3.858c.011-4.9.029-8.726.029-13.622Z" fill="url(#a)"/>
  <g>
    <path d="M127.9,22.263c0,6.434,5.592,11.048,11.77,11.133,6.2.085,12.182-4.625,12.014-11.1a12.024,12.024,0,0,0-1.865-6.355,11.937,11.937,0,0,0-9.86-5.142c-6.486-.052-12.06,4.739-12.06,11.462m11.153-5.971c3.211-.592,5.653,2.143,5.951,4.986.842,8.056-9.593,9.056-10.462,1.7-.414-3.53,1.676-6.16,4.513-6.684ZM50.411,28.949c1.813,3.591,6.126,4.462,9.81,4.507,3.294.039,8.353-1.252,10.863-3.609q0-9.307-.011-18.61l-6.937,0L64.1,27.1c-1.938.871-4.533,1.549-6.351.06a5.43,5.43,0,0,1-1.576-4.27L56.16,11.241H49.174L49.167,23.7A11.568,11.568,0,0,0,50.411,28.949ZM167.281,11.373h-4.587V3.359h-6.987l.038,29.572h7V17.342h4.538ZM103.865,32.935l6.845-.017-.054-21.677H103.81Zm-6.9-17.719c-1.813-3.591-6.126-4.462-9.809-4.507-3.3-.04-8.353,1.252-10.863,3.609q0,9.3.009,18.61l6.937,0,.034-15.856C85.208,16.2,87.8,15.518,89.62,17A5.447,5.447,0,0,1,91.2,21.277l.012,11.647H98.2l.008-12.459A11.555,11.555,0,0,0,96.96,15.216ZM111.127,3.359a3.885,3.885,0,0,1-7.77,0Zm5.8,0-.037,29.572,7.016,0-.054-29.577Z"/>
    <g opacity="0.5">
      <path d="M167.281,3.359a3.359,3.359,0,1,1,3.359,3.359h-.01A3.367,3.367,0,0,1,167.281,3.359Zm6.329-.019A2.929,2.929,0,0,0,170.721.371h-.072a2.959,2.959,0,0,0-2.979,2.939q0,.034,0,.067a2.929,2.929,0,0,0,2.889,2.968h.071a2.959,2.959,0,0,0,2.98-2.938q0-.034,0-.067Zm-4.353-1.865h1.587a1.5,1.5,0,0,1,1.1.389,1.085,1.085,0,0,1,.3.8,1.108,1.108,0,0,1-.77,1.1l.875,1.285h-.918L170.653,3.9h-.6V5.051h-.789Zm1.575,1.745c.4,0,.612-.214.612-.529,0-.343-.241-.518-.631-.518h-.77V3.222Z"/>
    </g>
  </g>
</svg>
