<svg xmlns="http://www.w3.org/2000/svg" viewBox="0 0 192.792 51.67">
  <title>logo</title>
  <g>
    <path d="M121.6,34.383c0,9.936,8.636,17.063,18.178,17.193,9.575.131,18.814-7.143,18.555-17.139a18.57,18.57,0,0,0-2.881-9.815,18.435,18.435,0,0,0-15.227-7.941C130.208,16.6,121.6,24,121.6,34.383m17.224-9.221c4.959-.915,8.731,3.309,9.19,7.7,1.3,12.441-14.816,13.986-16.157,2.622C131.218,30.033,134.446,25.97,138.827,25.162ZM1.921,44.709c2.8,5.546,9.461,6.891,15.151,6.96,5.087.06,12.9-1.933,16.777-5.574q0-14.373-.017-28.741c-1.947,0-9.406.007-10.713.007l-.052,24.489c-2.993,1.345-7,2.393-9.808.093-1.391-1.134-2.51-3.59-2.434-6.594L10.8,17.361H.012L0,36.6A17.866,17.866,0,0,0,1.921,44.709ZM182.415,17.565h-7.084V5.188H164.54l.059,45.67h10.808V26.783h7.008Zm-97.939,33.3,10.571-.026-.083-33.478H84.39ZM73.812,23.5c-2.8-5.546-9.461-6.891-15.149-6.96-5.089-.062-12.9,1.933-16.777,5.574q0,14.369.014,28.741c1.947,0,9.406-.007,10.714-.007l.052-24.488c2.995-1.346,7-2.394,9.81-.1,1.388,1.136,2.508,3.59,2.434,6.6l.019,17.987H75.724l.012-19.242A17.845,17.845,0,0,0,73.812,23.5ZM95.691,5.188a6,6,0,0,1-12,0Zm8.961,0-.057,45.67,10.835.007-.083-45.678Z" fill="#000" fill-rule="evenodd"/>
    <g opacity="0.5">
      <path d="M182.415,5.188a5.188,5.188,0,1,1,5.173,5.188A5.2,5.2,0,0,1,182.415,5.188Zm9.774-.029A4.524,4.524,0,0,0,187.617.573a4.57,4.57,0,0,0-4.6,4.643A4.523,4.523,0,0,0,187.588,9.8,4.57,4.57,0,0,0,192.19,5.159Zm-6.722-2.881h2.451a2.322,2.322,0,0,1,1.7.6,1.676,1.676,0,0,1,.459,1.232,1.711,1.711,0,0,1-1.189,1.705L190.24,7.8h-1.418l-1.2-1.777h-.931V7.8h-1.218ZM187.9,4.973c.616,0,.945-.33.945-.817,0-.53-.372-.8-.974-.8h-1.189v1.62Z" fill="#000"/>
    </g>
  </g>
</svg>
