<?xml version="1.0" standalone="no"?>
<!DOCTYPE svg PUBLIC "-//W3C//DTD SVG 20010904//EN"
 "http://www.w3.org/TR/2001/REC-SVG-20010904/DTD/svg10.dtd">
<svg version="1.0" xmlns="http://www.w3.org/2000/svg"
 width="260.000000pt" height="260.000000pt" viewBox="0 0 260.000000 260.000000"
 preserveAspectRatio="xMidYMid meet">
<metadata>
Created by potrace 1.11, written by Peter Selinger 2001-2013
</metadata>
<g transform="translate(0.000000,260.000000) scale(0.100000,-0.100000)"
fill="#000000" stroke="none">
<path d="M1170 2594 c-14 -2 -56 -9 -95 -15 -38 -6 -117 -26 -175 -45 -206
-66 -353 -157 -516 -319 -191 -191 -302 -394 -360 -665 -26 -119 -26 -381 0
-500 58 -271 169 -474 360 -665 194 -193 396 -303 666 -361 119 -26 381 -26
500 0 270 58 472 168 666 361 191 191 302 394 360 665 26 119 26 381 0 500
-58 270 -168 474 -360 666 -192 191 -398 302 -666 360 -71 15 -327 27 -380 18z
m355 -50 c378 -62 733 -330 913 -689 144 -289 166 -671 56 -977 -109 -303
-348 -570 -642 -717 -327 -164 -777 -164 -1104 0 -246 123 -464 341 -586 584
-144 290 -166 670 -56 977 78 215 241 440 418 578 287 221 631 305 1001 244z"/>
<path d="M1086 2384 c-442 -87 -787 -435 -871 -877 -19 -102 -19 -302 0 -404
84 -445 433 -794 878 -878 102 -19 302 -19 404 0 445 84 794 433 878 878 19
102 19 302 0 404 -84 445 -433 794 -878 878 -98 19 -316 18 -411 -1z m-16
-569 l0 -195 245 0 245 0 0 195 0 195 215 0 215 0 0 -195 0 -195 80 0 80 0 0
-80 0 -80 -80 0 -80 0 0 -75 0 -75 80 0 80 0 0 -80 0 -80 -80 0 -80 0 0 -193
0 -193 -32 -31 c-146 -138 -455 -235 -702 -220 -248 16 -439 111 -529 267 -40
70 -76 190 -84 282 l-8 83 -82 3 -83 3 0 79 0 80 80 0 80 0 0 75 0 75 -80 0
-80 0 0 80 0 80 80 0 80 0 0 195 0 195 220 0 220 0 0 -195z"/>
<path d="M1070 1385 l0 -75 245 0 245 0 0 75 0 75 -245 0 -245 0 0 -75z"/>
<path d="M1083 1110 c3 -22 19 -69 35 -104 25 -53 38 -69 79 -92 42 -25 58
-29 128 -29 57 0 103 7 158 24 l77 25 0 108 0 108 -241 0 -242 0 6 -40z"/>
</g>
</svg>
